<svg width="64" height="72" viewBox="0 0 64 72" fill="none" xmlns="http://www.w3.org/2000/svg">
<path fill-rule="evenodd" clip-rule="evenodd" d="M38.6627 35.9938L62.3661 49.5657C63.3744 50.1428 63.997 51.2193 63.998 52.3767C63.998 53.5321 63.3673 54.6085 62.3591 55.1847L33.7409 71.5656C33.2458 71.8502 32.6663 72 32.0939 72C31.5215 72 30.926 71.8492 30.4309 71.5646L1.75945 55.1847C0.752185 54.6066 0 53.5311 0 52.3757V19.6149C0 18.4596 0.752185 17.3841 1.75945 16.8069L30.4941 0.426024C31.4853 -0.142174 32.7698 -0.142174 33.7589 0.427022L62.3671 16.8059C63.3744 17.3821 64 18.4586 64 19.6139C64 20.7703 63.3734 21.8468 62.3661 22.423L38.6627 35.9938ZM35.4672 8.84714V30.3817L54.2728 19.6139L35.4672 8.84714ZM54.2728 52.3747L35.4672 63.1405V41.6069L54.2728 52.3747ZM28.816 30.4077V8.84714L9.98629 19.6279L28.816 30.4077ZM25.4056 35.9948L6.64915 46.7367V25.255L25.4056 35.9948ZM28.816 63.1405V41.5779L9.98629 52.3597L28.816 63.1405Z" fill="#296D9E" fill-opacity="0.8"/>
</svg>
